<svg width="40" height="41" viewBox="0 0 40 41" fill="none" xmlns="http://www.w3.org/2000/svg">
<path d="M26.6665 6.97363H29.9998C30.8839 6.97363 31.7317 7.32482 32.3569 7.94994C32.982 8.57506 33.3332 9.42291 33.3332 10.307V33.6403C33.3332 34.5244 32.982 35.3722 32.3569 35.9973C31.7317 36.6224 30.8839 36.9736 29.9998 36.9736H9.99984C9.11578 36.9736 8.26794 36.6224 7.64281 35.9973C7.01769 35.3722 6.6665 34.5244 6.6665 33.6403V10.307C6.6665 9.42291 7.01769 8.57506 7.64281 7.94994C8.26794 7.32482 9.11578 6.97363 9.99984 6.97363H13.3332" fill="#555555"/>
<path d="M26.6665 6.97363H29.9998C30.8839 6.97363 31.7317 7.32482 32.3569 7.94994C32.982 8.57506 33.3332 9.42291 33.3332 10.307V33.6403C33.3332 34.5244 32.982 35.3722 32.3569 35.9973C31.7317 36.6224 30.8839 36.9736 29.9998 36.9736H9.99984C9.11578 36.9736 8.26794 36.6224 7.64281 35.9973C7.01769 35.3722 6.6665 34.5244 6.6665 33.6403V10.307C6.6665 9.42291 7.01769 8.57506 7.64281 7.94994C8.26794 7.32482 9.11578 6.97363 9.99984 6.97363H13.3332" stroke="#EEEEEE" stroke-width="2" stroke-linecap="round" stroke-linejoin="round"/>
<path d="M25.0002 3.63965H15.0002C14.0797 3.63965 13.3335 4.38584 13.3335 5.30632V8.63965C13.3335 9.56012 14.0797 10.3063 15.0002 10.3063H25.0002C25.9206 10.3063 26.6668 9.56012 26.6668 8.63965V5.30632C26.6668 4.38584 25.9206 3.63965 25.0002 3.63965Z" fill="#555555" stroke="#EEEEEE" stroke-width="2" stroke-linecap="round" stroke-linejoin="round"/>
</svg>
