<svg width="40" height="40" viewBox="0 0 40 40" fill="none" xmlns="http://www.w3.org/2000/svg">
<path d="M34.9998 21.3167C34.7377 24.1537 33.6729 26.8573 31.9302 29.1113C30.1876 31.3653 27.839 33.0763 25.1593 34.0442C22.4797 35.0121 19.5798 35.1969 16.799 34.5768C14.0182 33.9568 11.4715 32.5576 9.45688 30.543C7.44226 28.5283 6.04307 25.9816 5.42301 23.2008C4.80296 20.42 4.9877 17.5201 5.9556 14.8405C6.92351 12.1608 8.63455 9.81228 10.8885 8.06959C13.1425 6.3269 15.8462 5.26218 18.6832 5C17.0222 7.24711 16.2229 10.0157 16.4307 12.8024C16.6385 15.589 17.8396 18.2084 19.8155 20.1843C21.7914 22.1602 24.4109 23.3613 27.1975 23.5691C29.9841 23.7769 32.7527 22.9776 34.9998 21.3167Z" fill="#D9D9D9" stroke="white" stroke-width="2" stroke-linecap="round" stroke-linejoin="round"/>
</svg>
