<svg width="35" height="36" viewBox="0 0 35 36" fill="none" xmlns="http://www.w3.org/2000/svg">
<path d="M8.75 14.0745V3.86621H26.25V14.0745" fill="#555555"/>
<path d="M8.75 14.0745V3.86621H26.25V14.0745" stroke="#EEEEEE" stroke-width="2" stroke-linecap="round" stroke-linejoin="round"/>
<path d="M8.74984 27.1992H5.83317C5.05962 27.1992 4.31776 26.8919 3.77078 26.3449C3.22379 25.798 2.9165 25.0561 2.9165 24.2826V16.9909C2.9165 16.2173 3.22379 15.4755 3.77078 14.9285C4.31776 14.3815 5.05962 14.0742 5.83317 14.0742H29.1665C29.9401 14.0742 30.6819 14.3815 31.2289 14.9285C31.7759 15.4755 32.0832 16.2173 32.0832 16.9909V24.2826C32.0832 25.0561 31.7759 25.798 31.2289 26.3449C30.6819 26.8919 29.9401 27.1992 29.1665 27.1992H26.2498" fill="#555555"/>
<path d="M8.74984 27.1992H5.83317C5.05962 27.1992 4.31776 26.8919 3.77078 26.3449C3.22379 25.798 2.9165 25.0561 2.9165 24.2826V16.9909C2.9165 16.2173 3.22379 15.4755 3.77078 14.9285C4.31776 14.3815 5.05962 14.0742 5.83317 14.0742H29.1665C29.9401 14.0742 30.6819 14.3815 31.2289 14.9285C31.7759 15.4755 32.0832 16.2173 32.0832 16.9909V24.2826C32.0832 25.0561 31.7759 25.798 31.2289 26.3449C30.6819 26.8919 29.9401 27.1992 29.1665 27.1992H26.2498" stroke="#EEEEEE" stroke-width="2" stroke-linecap="round" stroke-linejoin="round"/>
<path d="M26.25 21.3662H8.75V33.0329H26.25V21.3662Z" fill="#555555" stroke="#EEEEEE" stroke-width="2" stroke-linecap="round" stroke-linejoin="round"/>
</svg>
