<svg width="40" height="40" viewBox="0 0 40 40" fill="none" xmlns="http://www.w3.org/2000/svg">
<g clip-path="url(#clip0_131_2055)">
<path d="M32.3332 24.9993C32.1113 25.502 32.0451 26.0597 32.1432 26.6003C32.2412 27.141 32.4989 27.6399 32.8832 28.0327L32.9832 28.1327C33.2931 28.4423 33.539 28.8099 33.7067 29.2146C33.8745 29.6192 33.9608 30.053 33.9608 30.491C33.9608 30.9291 33.8745 31.3628 33.7067 31.7675C33.539 32.1721 33.2931 32.5398 32.9832 32.8493C32.6736 33.1593 32.306 33.4051 31.9013 33.5729C31.4966 33.7406 31.0629 33.827 30.6248 33.827C30.1868 33.827 29.753 33.7406 29.3484 33.5729C28.9437 33.4051 28.5761 33.1593 28.2665 32.8493L28.1665 32.7493C27.7737 32.3651 27.2748 32.1074 26.7342 32.0093C26.1935 31.9113 25.6359 31.9775 25.1332 32.1994C24.6402 32.4106 24.2198 32.7614 23.9237 33.2086C23.6276 33.6557 23.4686 34.1797 23.4665 34.716V34.9994C23.4665 35.8834 23.1153 36.7313 22.4902 37.3564C21.8651 37.9815 21.0172 38.3327 20.1332 38.3327C19.2491 38.3327 18.4013 37.9815 17.7761 37.3564C17.151 36.7313 16.7998 35.8834 16.7998 34.9994V34.8493C16.7869 34.2977 16.6084 33.7627 16.2874 33.3139C15.9663 32.865 15.5177 32.5232 14.9998 32.3327C14.4971 32.1108 13.9395 32.0446 13.3989 32.1427C12.8582 32.2407 12.3593 32.4985 11.9665 32.8827L11.8665 32.9827C11.5569 33.2926 11.1893 33.5385 10.7846 33.7062C10.38 33.874 9.94622 33.9603 9.50817 33.9603C9.07012 33.9603 8.63636 33.874 8.2317 33.7062C7.82704 33.5385 7.45941 33.2926 7.14984 32.9827C6.83992 32.6731 6.59405 32.3055 6.4263 31.9008C6.25856 31.4962 6.17221 31.0624 6.17221 30.6243C6.17221 30.1863 6.25856 29.7525 6.4263 29.3479C6.59405 28.9432 6.83992 28.5756 7.14984 28.266L7.24984 28.166C7.63407 27.7732 7.89181 27.2743 7.98984 26.7337C8.08788 26.193 8.0217 25.6354 7.79984 25.1327C7.58857 24.6397 7.23776 24.2193 6.79061 23.9232C6.34346 23.6271 5.81948 23.4682 5.28317 23.466H4.99984C4.11578 23.466 3.26794 23.1148 2.64281 22.4897C2.01769 21.8646 1.6665 21.0167 1.6665 20.1327C1.6665 19.2486 2.01769 18.4008 2.64281 17.7757C3.26794 17.1505 4.11578 16.7993 4.99984 16.7993H5.14984C5.70149 16.7864 6.23651 16.6079 6.68534 16.2869C7.13416 15.9659 7.47603 15.5172 7.6665 14.9993C7.88836 14.4967 7.95454 13.939 7.85651 13.3984C7.75848 12.8577 7.50073 12.3588 7.1165 11.966L7.0165 11.866C6.70658 11.5564 6.46072 11.1888 6.29297 10.7842C6.12522 10.3795 6.03888 9.94573 6.03888 9.50768C6.03888 9.06963 6.12522 8.63588 6.29297 8.23122C6.46072 7.82655 6.70658 7.45893 7.0165 7.14935C7.32608 6.83943 7.69371 6.59356 8.09837 6.42582C8.50303 6.25807 8.93679 6.17173 9.37484 6.17173C9.81289 6.17173 10.2466 6.25807 10.6513 6.42582C11.056 6.59356 11.4236 6.83943 11.7332 7.14935L11.8332 7.24935C12.226 7.63358 12.7249 7.89132 13.2655 7.98936C13.8062 8.08739 14.3638 8.02121 14.8665 7.79935H14.9998C15.4928 7.58808 15.9132 7.23728 16.2093 6.79012C16.5055 6.34297 16.6644 5.81899 16.6665 5.28268V4.99935C16.6665 4.11529 17.0177 3.26745 17.6428 2.64233C18.2679 2.01721 19.1158 1.66602 19.9998 1.66602C20.8839 1.66602 21.7317 2.01721 22.3569 2.64233C22.982 3.26745 23.3332 4.11529 23.3332 4.99935V5.14935C23.3353 5.68566 23.4942 6.20964 23.7903 6.65679C24.0865 7.10394 24.5069 7.45474 24.9998 7.66602C25.5025 7.88787 26.0602 7.95405 26.6008 7.85602C27.1415 7.75799 27.6404 7.50024 28.0332 7.11602L28.1332 7.01602C28.4427 6.70609 28.8104 6.46023 29.215 6.29248C29.6197 6.12474 30.0535 6.03839 30.4915 6.03839C30.9296 6.03839 31.3633 6.12474 31.768 6.29248C32.1726 6.46023 32.5403 6.70609 32.8498 7.01602C33.1598 7.32559 33.4056 7.69322 33.5734 8.09788C33.7411 8.50254 33.8275 8.9363 33.8275 9.37435C33.8275 9.8124 33.7411 10.2462 33.5734 10.6508C33.4056 11.0555 33.1598 11.4231 32.8498 11.7327L32.7498 11.8327C32.3656 12.2255 32.1079 12.7244 32.0098 13.265C31.9118 13.8057 31.978 14.3633 32.1998 14.866V14.9993C32.4111 15.4923 32.7619 15.9127 33.2091 16.2088C33.6562 16.505 34.1802 16.6639 34.7165 16.666H34.9998C35.8839 16.666 36.7317 17.0172 37.3569 17.6423C37.982 18.2674 38.3332 19.1153 38.3332 19.9993C38.3332 20.8834 37.982 21.7313 37.3569 22.3564C36.7317 22.9815 35.8839 23.3327 34.9998 23.3327H34.8498C34.3135 23.3348 33.7895 23.4937 33.3424 23.7899C32.8952 24.086 32.5444 24.5064 32.3332 24.9993Z" fill="#555555" stroke="#EEEEEE" stroke-width="2" stroke-linecap="round" stroke-linejoin="round"/>
<path d="M20 25C22.7614 25 25 22.7614 25 20C25 17.2386 22.7614 15 20 15C17.2386 15 15 17.2386 15 20C15 22.7614 17.2386 25 20 25Z" fill="#EEEEEE" stroke="#EEEEEE" stroke-width="2" stroke-linecap="round" stroke-linejoin="round"/>
</g>
<defs>
<clipPath id="clip0_131_2055">
<rect width="40" height="40" fill="white"/>
</clipPath>
</defs>
</svg>
