<svg width="40" height="41" viewBox="0 0 40 41" fill="none" xmlns="http://www.w3.org/2000/svg">
<path d="M36.25 35.5L33 32.1666M33 32.1666L28.125 37.1666L22.4375 31.3333L27.3125 26.3333M33 32.1666L27.3125 26.3333M20.6337 19.4833C19.8059 20.3439 18.8202 21.028 17.7335 21.4962C16.6467 21.9645 15.4804 22.2076 14.3017 22.2117C13.123 22.2157 11.9551 21.9806 10.8654 21.5198C9.77563 21.0591 8.7855 20.3817 7.95201 19.5269C7.11853 18.672 6.45815 17.6565 6.00889 16.5388C5.55964 15.4211 5.33038 14.2233 5.33433 13.0144C5.33828 11.8054 5.57535 10.6092 6.0319 9.49462C6.48844 8.38003 7.15545 7.36908 7.9945 6.51997C9.68013 4.85019 11.9378 3.92624 14.2811 3.94712C16.6245 3.96801 18.8662 4.93206 20.5233 6.63163C22.1803 8.33121 23.1203 10.6303 23.1406 13.0338C23.161 15.4373 22.2602 17.7528 20.6321 19.4816L20.6337 19.4833ZM20.6337 19.4833L27.3125 26.3333" stroke="#555555" stroke-width="2" stroke-linecap="round" stroke-linejoin="round"/>
</svg>
